# xmcd
#
# Track frame offsets:
#	150
#	45330
#	90522
#	144666
#	189777
#	225954
#	262092
#
# Disc length: 4094 seconds
#
# Revision: 0
# Processed by: cddbd v1.5.2PL0 Copyright (c) Steve Scherf et al.
# Submitted via: dBpowerAMP V4.0
#
DISCID=4d0ffc07
DTITLE=AUBADE - Oiseaux du monde
DYEAR=1900
DGENRE=
TTITLE0=FRANCE SOLOGNE
TTITLE1=THAILANDE PARC NATIONAL
TTITLE2=MALAISIE FRASERS HILL
TTITLE3=ROUMANIE LES CARPATES
TTITLE4=USA LES BAYOUS DE LOUISIANE
TTITLE5=JAVA PARC NATIONAL DE GUNUNG
TTITLE6=BALI FOERET EKA KARYA
EXTD=
EXTT0=
EXTT1=
EXTT2=
EXTT3=
EXTT4=
EXTT5=
EXTT6=
PLAYORDER=
